<svg width="52" height="25" viewBox="0 0 52 25" fill="none" xmlns="http://www.w3.org/2000/svg">
  <g clip-path="url(#clip0_595_1007)">
    <path d="M14.038 0H0V2.53618H5.65078V18.6876H8.34269V2.53618H14.038V0Z" fill="#17191B" />
    <path d="M15.9732 5.44824H13.2812V18.6853H15.9732V5.44824Z" fill="#17191B" />
    <path d="M36.5015 5.44824H33.8096V18.6853H36.5015V5.44824Z" fill="#17191B" />
    <path
      d="M44.8879 5.00635C40.8167 5.00635 38.3027 8.12095 38.3027 11.9697C38.3027 15.8407 40.8167 18.9776 44.8879 18.9776C49.0036 18.9776 51.4731 15.8185 51.4731 11.9697C51.4731 8.1432 49.0036 5.00635 44.8879 5.00635ZM44.8879 16.4636C42.7077 16.4636 40.9946 14.7284 40.9946 11.992C40.9946 9.27781 42.7077 7.56477 44.8879 7.56477C47.0681 7.56477 48.7812 9.27781 48.7812 11.992C48.7812 14.7284 47.0681 16.4636 44.8879 16.4636Z"
      fill="#17191B" />
    <path
      d="M25.426 5.02637C23.8909 5.02637 22.5783 5.47131 21.5327 6.22771V5.44906H18.8408V24.1367H21.5327V17.774C22.5783 18.5304 23.8909 18.9976 25.426 18.9976C29.5417 18.9976 32.0112 15.8385 32.0112 11.9897C32.0112 8.14097 29.5417 5.02637 25.426 5.02637ZM25.426 16.4614C23.2458 16.4614 21.5327 14.7261 21.5327 11.9897C21.5327 9.27558 23.2458 7.56255 25.426 7.56255C27.6062 7.56255 29.3192 9.27558 29.3192 11.9897C29.3192 14.7261 27.6285 16.4614 25.426 16.4614Z"
      fill="#17191B" />
  </g>
  <defs>
    <clipPath id="clip0_595_1007">
      <rect width="52" height="24.1159" fill="white" />
    </clipPath>
  </defs>
</svg>
  